<svg id="visual" viewBox="0 0 900 600" width="900" height="600" xmlns="http://www.w3.org/2000/svg" xmlns:xlink="http://www.w3.org/1999/xlink" version="1.1"><rect x="0" y="0" width="900" height="600" fill="#fff"></rect><defs><linearGradient id="grad1_0" x1="33.3%" y1="0%" x2="100%" y2="100%"><stop offset="20%" stop-color="#ffffff" stop-opacity="1"></stop><stop offset="80%" stop-color="#ffffff" stop-opacity="1"></stop></linearGradient></defs><defs><linearGradient id="grad2_0" x1="0%" y1="0%" x2="66.7%" y2="100%"><stop offset="20%" stop-color="#ffffff" stop-opacity="1"></stop><stop offset="80%" stop-color="#ffffff" stop-opacity="1"></stop></linearGradient></defs><g transform="translate(900, 0)"><path d="M0 486.7C-44.9 463.9 -89.7 441.1 -139.7 429.9C-189.6 418.6 -244.6 418.9 -286.1 393.8C-327.6 368.7 -355.5 318.3 -373 271C-390.4 223.6 -397.4 179.4 -414.7 134.7C-431.9 90.1 -459.3 45 -486.7 0L0 0Z" fill="#6897E5"></path></g><g transform="translate(0, 600)"><path d="M0 -486.7C52.7 -484.5 105.3 -482.2 150.4 -462.9C195.5 -443.7 233.1 -407.4 272.7 -375.4C312.4 -343.4 354.1 -315.7 381.9 -277.4C409.6 -239.2 423.3 -190.4 438.4 -142.5C453.6 -94.5 470.2 -47.2 486.7 0L0 0Z" fill="#6897E5"></path></g></svg>